# xmcd
#
# Track frame offsets: 
#        150
#        19433
#        36424
#        51900
#        70438
#        88218
#        101190
#        115986
#        135950
#        153903
#
# Disc length: 2301 seconds
#
# Revision: 0
# Processed by: cddbd v1.5.2PL0 Copyright (c) Steve Scherf et al.
# Submitted via: ExactAudioCopy v0.99pb5
#
DISCID=8e08fb0a
DTITLE=Eason Chan - Xing Fu - King of Eason 3 of 4
DYEAR=2000
DGENRE=Pop-Folk
TTITLE0=01 - Xing Fu Mo Tian Lun
TTITLE1=02 - Piao Piao Piao Piao
TTITLE2=03 - Shi Guang Dao Liu Er Shi Nian
TTITLE3=04 - Hu Ran Nan Guo
TTITLE4=05 - Zhuan Jia Shuo
TTITLE5=06 - You Le Ni
TTITLE6=07 - Chun Guang Zha Xie
TTITLE7=08 - Gai Zhao Ren
TTITLE8=09 - La Ji
TTITLE9=10 - Fei Zou Bu Ke
EXTD=
EXTT0=
EXTT1=
EXTT2=
EXTT3=
EXTT4=
EXTT5=
EXTT6=
EXTT7=
EXTT8=
EXTT9=
PLAYORDER=
